<svg width="512" height="512" viewBox="0 0 512 512" fill="none" xmlns="http://www.w3.org/2000/svg">
  <path d="M256 472C374.71 472 472 374.71 472 256C472 137.29 374.71 40 256 40C137.29 40 40 137.29 40 256C40 374.71 137.29 472 256 472Z" fill="#000000"/>
  <path d="M256 432C352.604 432 432 352.604 432 256C432 159.396 352.604 80 256 80C159.396 80 80 159.396 80 256C80 352.604 159.396 432 256 432Z" fill="#FFFFFF"/>
  <path d="M256 256L256 80C352.604 80 432 159.396 432 256H256Z" fill="#FF4136"/>
  <path d="M432 256C432 352.604 352.604 432 256 432L256 256L432 256Z" fill="#2ECC40"/>
  <path d="M256 432C159.396 432 80 352.604 80 256L256 256L256 432Z" fill="#0074D9"/>
  <path d="M80 256C80 159.396 159.396 80 256 80L256 256L80 256Z" fill="#FFDC00"/>
  <path d="M256 120C331.604 120 392 180.396 392 256C392 331.604 331.604 392 256 392C180.396 392 120 331.604 120 256C120 180.396 180.396 120 256 120Z" fill="#000000"/>
  <circle cx="256" cy="256" r="40" fill="#FFFFFF"/>
</svg>